<?xml version="1.0" encoding="utf-8"?>
<!-- Generator: Adobe Illustrator 26.0.3, SVG Export Plug-In . SVG Version: 6.00 Build 0)  -->
<svg version="1.1" id="Layer_1" xmlns="http://www.w3.org/2000/svg" xmlns:xlink="http://www.w3.org/1999/xlink" x="0px" y="0px"
	 viewBox="0 0 1080 1080" style="enable-background:new 0 0 1080 1080;" xml:space="preserve">
<style type="text/css">
	.st0{fill:#2B3336;}
	.st1{fill:none;stroke:#BB936E;stroke-width:15.1685;stroke-miterlimit:10;}
	.st2{fill:#F1EFE3;}
</style>
<g>
	<rect class="st0" width="1080" height="1080"/>
	<rect x="88" y="88" class="st1" width="904" height="904"/>
	<g>
		<g>
			<g>
				<path class="st2" d="M229.4,181.9c15,0,28.2,3,39.5,8.9c11.3,5.9,20.1,14.4,26.4,25.5c6.3,11.1,9.4,24.5,9.4,40.3
					c0,15.4-3.2,28.9-9.6,40.4s-15.3,20.6-26.7,27c-11.4,6.5-24.5,9.7-39.2,9.7c-15,0-28.2-3-39.5-8.9
					c-11.3-5.9-20.1-14.4-26.4-25.6c-6.3-11.1-9.4-24.5-9.4-40.2c0-15.4,3.2-28.9,9.7-40.4c6.5-11.6,15.4-20.6,26.7-27
					C201.6,185.1,214.6,181.9,229.4,181.9z M304.7,325.9l3.7,1c-1,8.1-2.6,15.2-5.1,21.2c-2.4,6.1-5.6,10.7-9.6,13.8
					c-3,2.3-6.8,4.2-11.4,5.6c-4.6,1.4-9.5,2.1-14.8,2.1c-7.7,0-15.2-1.1-22.6-3.4c-7.4-2.3-14.8-5.1-22.2-8.6
					c-7.4-3.4-15.2-6.7-23.3-9.9c-0.8-0.3-1.7-0.6-2.7-0.9c-1-0.3-1.7-0.5-2.3-0.5c-2.6,1.4-5.5,2.5-8.6,3.4c-3.1,0.9-6,1.3-8.8,1.3
					c-2.8,0-5.1-0.4-6.9-1.3c-1.9-0.9-2.8-2.4-2.8-4.4c0-4,3.8-6,11.3-6c4.8,0,10,1.1,15.7,3.3c5.2-1.4,9.7-2.9,13.4-4.6
					c3.7-1.7,7.5-3.3,11.4-4.8c3.9-1.5,8.7-2.5,14.3-2.9l0.2,3.3c-4.4,0.4-8.2,1.2-11.3,2.4c-3.2,1.2-6.3,2.4-9.5,3.8
					c-3.2,1.4-6.9,2.7-11.3,3.9c10.9,0.5,20.5,1,29,1.4s16.2,0.6,23.1,0.5c6.9-0.1,13.4-0.6,19.5-1.5c8.1-1.4,14.5-3.4,19.2-6.1
					C297.2,335.2,301.2,331.2,304.7,325.9z M228.5,185.6c-7.3,0-13.6,3.1-19,9.3c-5.4,6.2-9.5,14.7-12.5,25.6
					c-3,10.9-4.4,23.4-4.4,37.8c0,14.6,1.7,27.3,5,38.1c3.3,10.8,7.8,19.1,13.5,25c5.7,5.8,12,8.8,18.9,8.8c7.3,0,13.6-3.1,19.1-9.3
					c5.4-6.2,9.6-14.8,12.5-25.7c2.9-10.9,4.3-23.5,4.3-37.6c0-14.7-1.7-27.4-5.1-38.2c-3.4-10.7-7.9-19-13.5-24.9
					C241.7,188.5,235.4,185.6,228.5,185.6z"/>
				<path class="st2" d="M473,184.8v4.1c-4.3,0.7-7.5,2-9.7,3.9c-2.2,1.9-3.6,4.9-4.3,8.9c-0.7,4-1,9.6-1,16.9v52.2
					c0,8.8-0.6,16.9-1.8,24.3c-1.2,7.4-3.4,13.9-6.7,19.4c-3.6,5.9-8.9,10.6-15.9,14c-7,3.4-16.1,5.2-27.2,5.2
					c-6.3,0-12.9-0.7-19.7-2.2c-6.8-1.4-12.9-4.1-18.3-7.9c-4.5-3.6-8-7.8-10.4-12.6c-2.4-4.8-4-10.5-4.8-17
					c-0.8-6.5-1.2-14.1-1.2-22.6v-64.8c0-5.1-0.4-8.8-1.1-11.2c-0.8-2.4-2.2-4.1-4.3-5c-2.1-0.9-5.3-1.4-9.6-1.5v-4.1
					c3.7,0.1,8.7,0.3,14.9,0.4c6.2,0.1,12.7,0.2,19.4,0.2c6.7,0,13.2-0.1,19.4-0.2c6.2-0.1,11.3-0.3,15.5-0.4v4.1
					c-4.7,0.1-8.2,0.7-10.6,1.5c-2.4,0.9-4,2.5-4.8,5c-0.8,2.4-1.2,6.2-1.2,11.2v81.1c0,6.7,0.5,12.6,1.5,17.5c1,5,2.6,9,4.7,12.2
					c2.1,3.2,4.9,5.5,8.4,6.9c3.4,1.4,7.6,2.2,12.4,2.2c9.5,0,16.9-2.2,22.3-6.7c5.4-4.5,9.1-10.8,11.3-18.9
					c2.2-8.1,3.3-17.4,3.3-27.8v-51.2c0-8.4-0.4-14.8-1.2-19.3c-0.8-4.5-2.7-7.7-5.6-9.7c-2.9-2-7.4-3.3-13.6-4v-4.1
					c2.6,0.1,6.1,0.3,10.4,0.4c4.3,0.1,8.4,0.2,12.3,0.2c3.2,0,6.4-0.1,9.6-0.2C468.3,185,470.9,184.9,473,184.8z"/>
				<path class="st2" d="M615.9,184.8c-0.6,6.5-0.9,12.7-1.1,18.8c-0.2,6.1-0.3,10.7-0.3,13.8c0,2.8,0.1,5.4,0.2,8
					c0.1,2.6,0.3,4.7,0.4,6.4h-4.7c-1.5-10.7-4-19.2-7.3-25.4c-3.4-6.2-7.5-10.6-12.4-13.1c-4.9-2.5-10.3-3.8-16.2-3.8h-5.6
					c-3.9,0-6.7,0.3-8.7,0.9c-1.9,0.6-3.2,1.9-3.8,3.8c-0.6,1.9-0.9,5-0.9,9.1v108.9c0,4,0.3,7,0.9,9c0.6,2,1.9,3.3,3.8,3.9
					c1.9,0.6,4.8,0.9,8.7,0.9h8.5c5.4,0,10.5-1.4,15.4-4.2c4.9-2.8,9.2-7.6,13.1-14.4c3.8-6.8,6.7-16.1,8.7-27.7h4.7
					c-0.4,4.7-0.6,10.7-0.6,18.2c0,3.3,0.1,8,0.2,14c0.1,6.1,0.5,12.4,1.2,19c-7-0.3-14.9-0.4-23.7-0.5c-8.8-0.1-16.6-0.1-23.5-0.1
					c-3.6,0-8.1,0-13.6,0c-5.5,0-11.5,0-17.9,0.1c-6.5,0.1-13,0.1-19.6,0.2c-6.6,0.1-12.8,0.2-18.6,0.3v-4.1
					c4.3-0.3,7.5-0.8,9.6-1.7c2.1-0.8,3.6-2.5,4.3-5c0.8-2.5,1.1-6.2,1.1-11.1V206.6c0-5.1-0.4-8.8-1.1-11.2c-0.8-2.4-2.2-4.1-4.3-5
					c-2.1-0.9-5.3-1.4-9.6-1.5v-4.1c5.9,0.1,12.1,0.2,18.7,0.3c6.5,0.1,13,0.1,19.5,0.2c6.5,0.1,12.4,0.1,17.9,0.1
					c5.5,0,10,0,13.6,0c6.3,0,13.5,0,21.6-0.1C602.4,185.2,609.6,185,615.9,184.8z M584.8,255.3v4.1h-35.5v-4.1H584.8z M590.8,228.1
					c-0.6,7.8-0.8,13.8-0.7,17.9c0.1,4.1,0.1,7.9,0.1,11.3c0,3.4,0.1,7.2,0.2,11.3c0.1,4.1,0.5,10.1,1,17.9h-4.7
					c-0.7-5-2.1-9.5-4.3-13.6c-2.2-4.1-5.2-7.4-8.9-9.9c-3.7-2.5-8.3-3.7-13.6-3.7v-4.1c4,0,7.5-0.9,10.5-2.6c3-1.7,5.6-4,7.7-6.7
					c2.1-2.7,3.9-5.7,5.3-8.9c1.4-3.2,2.3-6.2,2.7-9.1H590.8z"/>
				<path class="st2" d="M710.2,182.1c8.5,0,15.1,0.9,19.8,2.6c4.7,1.7,8.7,3.5,12,5.5c1.7,1,3,1.7,4,2.2c1,0.5,2,0.7,3,0.7
					c1.4,0,2.4-0.8,3-2.3c0.6-1.5,1.1-3.8,1.5-6.8h4.7c-0.1,2.8-0.3,6-0.5,9.7c-0.2,3.7-0.3,8.6-0.4,14.7
					c-0.1,6.1-0.1,14.2-0.1,24.2h-4.7c-0.6-7.4-2.3-14.6-5.2-21.5c-2.9-6.9-6.8-12.6-11.9-17.1c-5-4.5-11.2-6.8-18.5-6.8
					c-6.3,0-11.6,1.8-15.7,5.3s-6.2,8.5-6.2,15c0,5.2,1.3,9.7,3.9,13.5c2.6,3.8,6.6,7.6,11.9,11.4c5.3,3.9,12,8.6,20.1,14.2
					c6.5,4.3,12.2,8.5,17.3,12.8c5.1,4.3,9.2,9.1,12.3,14.4c3.1,5.4,4.6,11.8,4.6,19.4c0,9.1-2.5,16.6-7.4,22.6
					c-5,6-11.5,10.5-19.6,13.4c-8.1,3-17,4.4-26.6,4.4c-8.9,0-16.1-0.8-21.4-2.5c-5.3-1.7-9.8-3.4-13.5-5.2c-3-1.9-5.4-2.9-7-2.9
					c-1.4,0-2.4,0.8-3,2.3c-0.6,1.5-1.1,3.8-1.5,6.8h-4.7c0.3-3.4,0.4-7.5,0.5-12.1c0.1-4.6,0.1-10.6,0.2-17.8
					c0.1-7.3,0.1-16.6,0.1-27.8h4.7c0.5,9.4,2.1,18.1,4.6,26.2c2.5,8.1,6.5,14.7,11.8,19.7c5.3,5,12.3,7.5,21.1,7.5
					c5,0,9.3-0.8,13-2.5c3.7-1.7,6.7-4.1,8.9-7.3c2.2-3.2,3.3-7.2,3.3-11.9c0-5.8-1.3-10.8-3.9-15.1c-2.6-4.3-6.2-8.3-10.7-12.1
					c-4.5-3.8-9.8-7.6-15.9-11.4c-6.5-4.3-12.5-8.6-18.2-13c-5.6-4.4-10.1-9.3-13.5-14.8c-3.4-5.4-5.1-12-5.1-19.7
					c0-8.8,2.3-16,6.8-21.7c4.5-5.6,10.6-9.8,18.1-12.5C693.9,183.4,701.8,182.1,710.2,182.1z"/>
				<path class="st2" d="M929.7,184.8c-0.6,7.6-0.9,14.9-1.1,21.9c-0.2,7-0.3,12.4-0.3,16.1c0,3,0.1,5.8,0.2,8.5
					c0.1,2.6,0.3,4.9,0.4,6.8h-4.7c-2.8-12.2-6.1-21.9-9.9-29c-3.9-7.1-8.2-12.1-13.1-15.1c-4.9-3-10.1-4.4-15.8-4.4h-2.5v117.8
					c0,5.6,0.6,9.8,1.8,12.6c1.2,2.8,3.4,4.6,6.6,5.5c3.2,0.9,7.9,1.3,14.1,1.3v4.1c-4.5-0.1-10.6-0.3-18.3-0.4
					c-7.6-0.1-15.6-0.2-23.8-0.2c-8.1,0-15.7,0.1-22.9,0.2c-7.2,0.1-12.9,0.3-17.3,0.4v-4.1c6.2,0,10.9-0.4,14.2-1.3
					c3.3-0.9,5.5-2.7,6.6-5.5c1.1-2.7,1.7-6.9,1.7-12.6V189.5h-2.3c-5.8,0-11.1,1.5-15.9,4.4c-4.8,3-9.1,7.9-13,15
					c-3.9,7-7.2,16.7-10.1,29.1h-4.7c0.3-1.9,0.4-4.2,0.5-6.8c0.1-2.6,0.1-5.4,0.1-8.5c0-3.7-0.1-9.1-0.3-16.1
					c-0.2-7-0.6-14.3-1.1-21.9c6.5,0.1,13.6,0.3,21.4,0.4c7.8,0.1,15.5,0.2,23.2,0.2c7.7,0,14.7,0,21,0c6.3,0,13.4,0,21.1,0
					c7.8,0,15.5-0.1,23.2-0.2C916.4,185,923.4,184.9,929.7,184.8z"/>
				<path class="st2" d="M237.6,802.3c7.2,0,13.1,1.1,17.8,3.2c4.6,2.1,8.8,4.6,12.4,7.5c2.2,1.6,3.8,1.8,5,0.6
					c1.1-1.3,1.9-4.2,2.4-8.9h3.8c-0.2,4.3-0.4,9.5-0.5,15.7c-0.1,6.2-0.2,14.4-0.2,24.6h-3.8c-0.4-5.1-1.1-9.6-2-13.4
					c-0.9-3.8-2.3-7.2-4-10.2c-1.7-2.9-4.3-5.6-7.5-7.9c-2.5-2.1-5.3-3.7-8.4-4.8c-3.1-1.1-6.3-1.7-9.6-1.7c-6,0-11.1,1.7-15.2,5
					c-4.1,3.3-7.4,7.7-9.8,13.1c-2.5,5.4-4.2,11.4-5.2,18c-1,6.6-1.6,13.2-1.6,19.9c0,6.8,0.5,13.5,1.6,20.1
					c1.1,6.6,2.9,12.6,5.3,17.9c2.5,5.4,5.8,9.6,9.9,12.9c4.1,3.2,9.2,4.8,15.2,4.8c3.2,0,6.3-0.5,9.4-1.6c3.1-1.1,5.9-2.7,8.4-4.8
					c4.8-3.3,8.1-7.6,9.7-12.9c1.7-5.3,2.9-12.2,3.7-20.7h3.8c0,10.6,0.1,19.1,0.2,25.6c0.1,6.5,0.3,11.9,0.5,16.3h-3.8
					c-0.4-4.7-1.2-7.6-2.2-8.8c-1-1.2-2.8-1-5.2,0.5c-4,2.8-8.3,5.3-12.9,7.5c-4.5,2.1-10.3,3.2-17.4,3.2c-11.9,0-22.4-2.3-31.4-7
					c-9-4.7-16-11.5-21-20.3c-5-8.8-7.5-19.5-7.5-31.9c0-12.2,2.6-22.9,7.7-32.1c5.1-9.2,12.2-16.3,21.2-21.5
					C215.5,804.9,225.9,802.3,237.6,802.3z"/>
				<path class="st2" d="M370.4,802.3c11.9,0,22.4,2.3,31.4,7c9,4.7,16,11.4,21,20.2c5,8.8,7.5,19.5,7.5,32
					c0,12.2-2.5,22.9-7.6,32.1s-12.2,16.3-21.2,21.5c-9.1,5.1-19.4,7.7-31.1,7.7c-11.9,0-22.4-2.3-31.4-7c-9-4.7-16-11.5-21-20.3
					c-5-8.8-7.5-19.5-7.5-31.9c0-12.2,2.6-22.9,7.7-32.1c5.1-9.2,12.2-16.3,21.2-21.5C348.4,804.9,358.8,802.3,370.4,802.3z
					 M369.8,805.2c-5.8,0-10.8,2.5-15.1,7.4c-4.3,4.9-7.6,11.7-9.9,20.3c-2.4,8.6-3.5,18.6-3.5,30c0,11.6,1.3,21.7,3.9,30.2
					c2.6,8.6,6.2,15.2,10.7,19.8c4.5,4.6,9.5,7,15,7c5.8,0,10.8-2.5,15.2-7.4c4.3-4.9,7.6-11.7,9.9-20.4s3.4-18.6,3.4-29.9
					c0-11.7-1.3-21.8-4-30.3c-2.7-8.5-6.3-15.1-10.7-19.7C380.2,807.6,375.2,805.2,369.8,805.2z"/>
				<path class="st2" d="M547.9,804.6c-0.4,5.2-0.7,10.3-0.9,15.1c-0.2,4.8-0.2,8.5-0.2,11.1c0,2.4,0.1,4.6,0.2,6.7
					c0.1,2.1,0.2,3.9,0.3,5.4h-3.8c-1.6-8.7-3.9-15.6-6.8-20.7c-2.9-5.1-6.2-8.7-10-10.7c-3.8-2.1-7.9-3.1-12.4-3.1h-3.8
					c-3.1,0-5.4,0.2-6.9,0.7c-1.5,0.5-2.5,1.5-3,3c-0.5,1.5-0.7,3.9-0.7,7.2v82.6c0,4.3,0.4,7.5,1.3,9.7c0.9,2.2,2.6,3.6,5.2,4.3
					s6.4,1,11.3,1.1v3.6c-3.6-0.1-8.2-0.2-13.9-0.3c-5.7-0.1-11.6-0.2-17.9-0.2c-4.9,0-9.7,0.1-14.5,0.2c-4.8,0.1-9.1,0.2-13.2,0.3
					v-3.3c3.4-0.2,5.9-0.7,7.6-1.3c1.7-0.7,2.8-2,3.4-3.9c0.6-2,0.9-4.9,0.9-8.8v-81.3c0-4-0.3-7-0.9-8.9c-0.6-1.9-1.7-3.2-3.4-3.9
					c-1.7-0.7-4.2-1.1-7.6-1.2v-3.3c4.7,0.1,9.6,0.2,14.8,0.2c5.2,0.1,10.3,0.1,15.5,0.2c5.1,0.1,9.9,0.1,14.3,0.1c4.4,0,8,0,10.8,0
					c5,0,10.7,0,17.1-0.1C537.1,804.9,542.8,804.8,547.9,804.6z M523.8,860.9v3.3h-28.8v-3.3H523.8z M528.2,839.3
					c-0.4,6.2-0.6,11-0.6,14.3c0.1,3.3,0.1,6.3,0.1,9c0,2.7,0.1,5.7,0.2,9c0.1,3.3,0.4,8,0.8,14.3h-3.8c-0.7-3.9-1.9-7.5-3.6-10.8
					c-1.7-3.3-4.1-5.9-7-7.9c-2.9-2-6.5-2.9-10.9-2.9v-3.3c3.2,0,6-0.7,8.4-2c2.4-1.4,4.4-3.1,6.1-5.3c1.7-2.2,3.1-4.5,4.2-7
					c1.1-2.5,1.9-4.9,2.3-7.2H528.2z"/>
				<path class="st2" d="M662.5,804.6c-0.4,5.2-0.7,10.3-0.9,15.1c-0.2,4.8-0.2,8.5-0.2,11.1c0,2.4,0.1,4.6,0.2,6.7
					c0.1,2.1,0.2,3.9,0.3,5.4h-3.8c-1.6-8.7-3.9-15.6-6.8-20.7c-2.9-5.1-6.2-8.7-10-10.7c-3.8-2.1-7.9-3.1-12.4-3.1h-3.8
					c-3.1,0-5.4,0.2-6.9,0.7c-1.5,0.5-2.5,1.5-3,3c-0.5,1.5-0.7,3.9-0.7,7.2v82.6c0,4.3,0.4,7.5,1.3,9.7c0.9,2.2,2.6,3.6,5.2,4.3
					s6.4,1,11.3,1.1v3.6c-3.6-0.1-8.2-0.2-13.9-0.3c-5.7-0.1-11.6-0.2-17.9-0.2c-4.9,0-9.7,0.1-14.5,0.2c-4.8,0.1-9.1,0.2-13.2,0.3
					v-3.3c3.4-0.2,5.9-0.7,7.6-1.3c1.7-0.7,2.8-2,3.4-3.9c0.6-2,0.9-4.9,0.9-8.8v-81.3c0-4-0.3-7-0.9-8.9c-0.6-1.9-1.7-3.2-3.4-3.9
					c-1.7-0.7-4.2-1.1-7.6-1.2v-3.3c4.7,0.1,9.6,0.2,14.8,0.2c5.2,0.1,10.3,0.1,15.5,0.2c5.1,0.1,9.9,0.1,14.3,0.1c4.4,0,8,0,10.8,0
					c5,0,10.7,0,17.1-0.1C651.8,804.9,657.5,804.8,662.5,804.6z M638.4,860.9v3.3h-28.8v-3.3H638.4z M642.9,839.3
					c-0.4,6.2-0.6,11-0.6,14.3c0.1,3.3,0.1,6.3,0.1,9c0,2.7,0.1,5.7,0.2,9c0.1,3.3,0.4,8,0.8,14.3h-3.8c-0.7-3.9-1.9-7.5-3.6-10.8
					c-1.7-3.3-4.1-5.9-7-7.9c-2.9-2-6.5-2.9-10.9-2.9v-3.3c3.2,0,6-0.7,8.4-2c2.4-1.4,4.4-3.1,6.1-5.3c1.7-2.2,3.1-4.5,4.2-7
					c1.1-2.5,1.9-4.9,2.3-7.2H642.9z"/>
				<path class="st2" d="M777.2,804.6c-0.4,5.1-0.7,10.1-0.9,14.9c-0.2,4.8-0.2,8.5-0.2,11c0,2.2,0.1,4.3,0.2,6.4
					c0.1,2.1,0.2,3.8,0.3,5.1h-3.8c-1.2-8.5-3.1-15.2-5.8-20.1c-2.7-4.9-6-8.4-9.8-10.4c-3.9-2-8.2-3-12.9-3h-4.4
					c-3.1,0-5.4,0.2-6.9,0.7c-1.5,0.5-2.5,1.5-3,3c-0.5,1.5-0.7,3.9-0.7,7.2v86.5c0,3.2,0.2,5.5,0.7,7.1c0.5,1.6,1.5,2.6,3,3.1
					c1.5,0.5,3.8,0.7,6.9,0.7h6.7c4.3,0,8.3-1.1,12.2-3.4c3.9-2.2,7.3-6.1,10.4-11.5c3.1-5.4,5.3-12.8,6.9-22h3.8
					c-0.3,3.7-0.5,8.5-0.5,14.4c0,2.6,0.1,6.3,0.2,11.1c0.1,4.8,0.4,9.8,1,15.1c-5.6-0.2-11.9-0.4-18.8-0.4
					c-7-0.1-13.2-0.1-18.7-0.1c-2.8,0-6.4,0-10.8,0c-4.4,0-9.1,0-14.3,0.1c-5.1,0.1-10.3,0.1-15.6,0.2c-5.2,0.1-10.2,0.1-14.7,0.2
					v-3.3c3.4-0.2,5.9-0.7,7.6-1.3c1.7-0.7,2.8-2,3.4-3.9c0.6-2,0.9-4.9,0.9-8.8v-81.3c0-4-0.3-7-0.9-8.9c-0.6-1.9-1.7-3.2-3.4-3.9
					c-1.7-0.7-4.2-1.1-7.6-1.2v-3.3c4.7,0.1,9.6,0.2,14.8,0.2c5.2,0.1,10.3,0.1,15.5,0.2c5.1,0.1,9.9,0.1,14.3,0.1c4.4,0,8,0,10.8,0
					c5,0,10.7,0,17.1-0.1C766.5,804.9,772.2,804.8,777.2,804.6z M752.5,860.6v3.3h-28.2v-3.3H752.5z M757.2,839
					c-0.4,6.2-0.6,11-0.6,14.3c0.1,3.3,0.1,6.3,0.1,9c0,2.7,0.1,5.7,0.2,9c0.1,3.3,0.4,8,0.8,14.3h-3.8c-0.5-3.9-1.7-7.5-3.4-10.8
					c-1.7-3.3-4.1-5.9-7-7.9c-2.9-2-6.6-2.9-10.8-2.9v-3.3c3.2,0,6-0.7,8.4-2c2.4-1.4,4.4-3.1,6.1-5.3c1.7-2.2,3.1-4.5,4.2-7
					c1.1-2.5,1.8-4.9,2.1-7.2H757.2z"/>
				<path class="st2" d="M898.8,804.6c-0.4,5.1-0.7,10.1-0.9,14.9c-0.2,4.8-0.2,8.5-0.2,11c0,2.2,0.1,4.3,0.2,6.4
					c0.1,2.1,0.2,3.8,0.3,5.1h-3.8c-1.2-8.5-3.1-15.2-5.8-20.1c-2.7-4.9-6-8.4-9.8-10.4c-3.9-2-8.2-3-12.9-3h-4.4
					c-3.1,0-5.4,0.2-6.9,0.7c-1.5,0.5-2.5,1.5-3,3c-0.5,1.5-0.7,3.9-0.7,7.2v86.5c0,3.2,0.2,5.5,0.7,7.1c0.5,1.6,1.5,2.6,3,3.1
					c1.5,0.5,3.8,0.7,6.9,0.7h6.7c4.3,0,8.3-1.1,12.2-3.4c3.9-2.2,7.3-6.1,10.4-11.5c3.1-5.4,5.3-12.8,6.9-22h3.8
					c-0.3,3.7-0.5,8.5-0.5,14.4c0,2.6,0.1,6.3,0.2,11.1c0.1,4.8,0.4,9.8,1,15.1c-5.6-0.2-11.9-0.4-18.8-0.4
					c-7-0.1-13.2-0.1-18.7-0.1c-2.8,0-6.4,0-10.8,0c-4.4,0-9.1,0-14.3,0.1c-5.1,0.1-10.3,0.1-15.6,0.2c-5.2,0.1-10.2,0.1-14.7,0.2
					v-3.3c3.4-0.2,5.9-0.7,7.6-1.3c1.7-0.7,2.8-2,3.4-3.9c0.6-2,0.9-4.9,0.9-8.8v-81.3c0-4-0.3-7-0.9-8.9c-0.6-1.9-1.7-3.2-3.4-3.9
					c-1.7-0.7-4.2-1.1-7.6-1.2v-3.3c4.7,0.1,9.6,0.2,14.8,0.2c5.2,0.1,10.3,0.1,15.5,0.2c5.1,0.1,9.9,0.1,14.3,0.1c4.4,0,8,0,10.8,0
					c5,0,10.7,0,17.1-0.1C888,804.9,893.7,804.8,898.8,804.6z M874,860.6v3.3h-28.2v-3.3H874z M878.8,839c-0.4,6.2-0.6,11-0.6,14.3
					c0.1,3.3,0.1,6.3,0.1,9c0,2.7,0.1,5.7,0.2,9c0.1,3.3,0.4,8,0.8,14.3h-3.8c-0.5-3.9-1.7-7.5-3.4-10.8c-1.7-3.3-4.1-5.9-7-7.9
					c-2.9-2-6.6-2.9-10.8-2.9v-3.3c3.2,0,6-0.7,8.4-2c2.4-1.4,4.4-3.1,6.1-5.3c1.7-2.2,3.1-4.5,4.2-7c1.1-2.5,1.8-4.9,2.1-7.2H878.8
					z"/>
			</g>
		</g>
	</g>
	<g>
		<g>
			<path class="st2" d="M663.8,427.2c-11.9-1.6-24-2.7-35.5-5.8c-14.3-3.8-28.2-4.1-42,0.5c-16.8,5.5-34.2,10.1-49.6,18.4
				c-26.1,13.9-50.8,30.4-76.2,45.8c-20.9,12.7-41,26.2-52.3,49c-6.3,12.7-12.1,25.5-18.1,38.3c1.1-1.4,2.6-2.7,3.3-4.4
				c11.6-29,33.3-49.1,58-67c11.9-8.6,21.9-20,34.1-28.2c32-21.6,67.6-35.2,104.7-45.1c6.3-1.7,13-1.8,20.7-2.9
				c-0.2,5.5-0.3,9.9-0.5,14.4c-0.9-0.7-1.7-1.4-2.6-2c-3.7,2.9-7.1,6.7-11.3,8.4c-9.2,3.7-15.7,15.9-28.6,9.1
				c-2.6-1.4-6.8,0.3-8.1,2.5c-2.8,3.3-5.6,6.7-8.4,10.1c0,0,0,0,0,0c3.4-2.3,6.5-5,10.2-6.7c2.8-1.3,6.2-1.1,11.8-2
				c-10.9,12-23.5,19-31.6,18.1c3.4-3.4,6.6-6.6,9.7-9.7c-9.9,7.7-20.1,15.1-29.6,23.3c-6.3,5.5-11.4,6.7-17.5-0.1
				c-1.8-2-5.5-2.3-10.7-4.3c4.5,4.1,6.9,6.3,9.2,8.4c-1.5,1.4-2.9,2.8-5.2,5c0.9,1.9,2.2,4.6,3.6,7.4c2.2,4.4,6.2,9.7-0.4,12.8
				c-3.3,1.6-8.2-0.4-13-0.9c0,0,0,2,0,5.7c-8.5-3.2-16.4-6.2-24.2-9.2c-0.3,0.9-0.6,1.8-1,2.7c7.1,2.2,14.4,4.1,21.2,7
				c1.9,0.8,4,5.4,3.3,7.3c-1.8,4.9-5.1,9.2-7.9,14.1c-4.5-0.7-9.8-1.6-15.9-2.6c3.5,3.3,7.6,5.5,8.7,8.7c1,2.9-1.4,7-2.8,12.4
				c-4.6-4.4-7.5-7.2-10.5-10.1c-6.2,4.6-10.8,9.8-11.3,18.4c-0.1,2.5-4.7,5.7-7.9,7c-13,5.4-20.5,14.9-23.1,31.6
				c-1.7-6.1-2.6-9.4-3.5-12.8c-0.6,0-1.2-0.1-1.8-0.1c-0.6,4.9-1.3,9.8-2.1,15.4c-5.5,0.4-12.7-0.9-13.8,9
				c-7.9-15.9-5.6-32-7.7-47.5c-0.6,4-2.4,8.2-1.8,11.9c3.2,18.3,6.8,36.5,10.6,54.6c3.8,17.8,16.1,29.5,30.4,39.1
				c22.1,14.8,47.7,21.1,72.8,28.5c16.3,4.7,32.7,3.5,47.6-5.7c31.8-19.6,63.6-39.3,95.2-59.4c16.3-10.3,26.4-25.7,34.7-42.8
				c21.6-44.8,34.8-90.6,22.3-141C694.9,443.2,683.2,429.8,663.8,427.2z M631,446.8c-7.2,13.5-22.2,24.1-32.5,20.7L631,446.8z
				 M551.4,500.4l-16.1,10.2C533.8,505,540.3,500,551.4,500.4z M529.8,509.2c1.2,0.9,2.3,1.8,3.5,2.7c-6.3,8-12.5,15.9-19.2,24.4
				c-3.6-3.3-6.5-5.9-11.1-10.1L529.8,509.2z M505.5,542.2c-4.5,5.6-8.9,8.7-13.6,1C498.7,533.4,499.2,533.3,505.5,542.2z
				 M424.9,602.3c0.8-3.1,2-6.1,2.5-7.4c4.6,0.5,7.8,0.9,13.8,1.5c-5.4,3.4-8.9,5.9-12.6,7.8C427.8,604.6,424.8,602.6,424.9,602.3z
				 M442,667.5c3.2-2.9,6.1-5.6,10.7-9.8c-0.6,6.6-1.1,11.4-1.7,17.3C447.5,672.1,445,670,442,667.5z M503.8,696.4
				c-4.7-11.9-1.1-24.3-2-36.5C508.7,660.3,510.2,677.6,503.8,696.4z M555.1,683.3c-1.1-0.1-2.2-0.1-3.3-0.2c-0.3-9-0.7-18.1-1-27.1
				c1.3,0,2.6,0,3.9,0C556.4,665.1,559.1,674.2,555.1,683.3z M616.7,641.6c2.1-9-7.9-20.8,7.6-28.4
				C622.4,624.1,624.2,633.9,616.7,641.6z M637.4,625.5c-0.8-8.5-7.5-17.7,2.4-25.1C639,608.7,638.2,617.1,637.4,625.5z M656,605.9
				c-1,0.1-1.9,0.1-2.9,0.2c2.3-8.6-6.8-17.2,2.9-25.7C656,588.8,656,597.4,656,605.9z M675.6,566.9c-1.6-0.7-3.1-1.5-4.7-2.2
				c7.1-14.1,14.1-28.3,21.2-42.4c1,0.5,2,0.9,3.1,1.4C688.7,538.1,682.1,552.5,675.6,566.9z M697.5,473.9c-0.3,10.5-6,20.8-9,31.3
				c-0.8,3-0.7,6.2-1.1,10.9c-2.1,0.7-6.6,2.3-12.3,4.2c3.4,1,5.8,1.7,9,2.7c-10.4,24.3-20,48.4-41.5,65.3
				c-8.4,6.6-15.6,14.7-23,22.4c-5.3,5.6-9.9,12.5-18.7,3.5c-1.1,3.4-1.8,5.6-2.7,8.4c-2.7-2.8-4.9-5.2-7.2-7.5
				c-0.7,0.3-1.4,0.6-2,0.9c1.2,3.5,2.4,6.9,3.8,10.9c-2.8,2.5-5.9,5.2-8.9,7.9c4.9,6.4,4.9,23.5-0.6,28.6c-0.6-3.4-0.7-6.5-1.7-9.3
				c-1.9-5.3,1.9-14.2-9.4-14c-2,0-4-6.5-7.2-12.1c0.4,16.9,6.6,31.4,3.5,46.1c-1.2,0.1-2.5,0.2-3.7,0.2
				c-0.7-10.2-1.6-20.3-1.9-30.5c-0.2-5.4-5.6-10.8-11.4-10.9c-2.6,0-5.2-1.4-8.3-1.6c6.1,6.3,14.9,11.1,10.2,22.6
				c-4.9-1.1-9.1-6.9-17-4c-1.9-2-5.3-5.5-9.4-9.8c0.6,4.7,1,8.7,1.6,13.4c-7.3-2.4-14.1-4.6-23.3-7.6c2.2,4.3,3.2,6.3,4.8,9.4
				c-6.6-0.5-12.2-1-17.8-1.4l0,0c0,0.1,0,0.3,0,0.4c1.3,1.4,3.3,2.8,3.2,4.1c-0.3,9.5-1.1,18.9-1.7,28.4c-0.9,0-1.9-0.1-2.8-0.1
				c0.4-10.8,0.9-21.6,1.3-32.4c-0.2-0.1-0.3-0.3-0.4-0.5c0.1,0,0.3,0,0.4,0c-3.4-4.1-6.8-8.3-11-13.3c-0.4,7.8-0.8,15.4-1.1,22.9
				c0.5-15.9-12.2-21-25.3-28.3c2.5,2.5,3.2,3.8,4.4,4.3c15.6,7,17.1,19.8,14.4,34.4c-0.5,3-0.7,6.1-2.8,9.3
				c-2.7-12,2.2-25.5-6.4-36.1c-0.1,10.1-0.2,20.3-0.2,30.4c-0.9,0.1-1.7,0.2-2.6,0.2c-0.5-10.7-1-21.5-1.4-32.2
				c-9.2,12.1-16,16.9-23.1,14.4l17.6,27.7c-0.8,0.7-1.6,1.4-2.3,2c-5.3-5.5-10.5-11-16.1-16.8c-0.1,2.4-0.1,5.1-0.2,7.9
				c-0.6,0.3-1.3,0.7-1.9,1c-1.1-2.1-2.3-4.2-3.3-6.4c-2.6-6.1-12.9-9.2-7.6-18.8c0.2-0.4-4.9-3.3-7.1-5.5c-1.1-1.1-2.1-2.3-3.1-3.5
				c-0.5-0.6-0.9-1.2-1.4-1.8c-0.5-0.6-0.9-1.3-1.4-1.8l0,0c-1.1,1-2.2,1.9-3.3,2.9c7-9.7,2.9-18.4-3.5-27.6
				c10.4,2.7,12.2,9.6,8.2,24.8c7-4.3,14-8.6,21.9-13.4c4.1,10.5,9.1,15.2,20.1,8.7c-2.6-4.4-5-9.9-8.8-14.3c-7-8-7-11.6,2.1-16.5
				c7.5-4.1,15.4-7.4,23.1-11.1c-0.1-0.1-1.8-1.3-4.1-2.8c9.6-11.8,21.1-19.7,34-20.7c2.3-4.2,3.1-7.3,5.1-8.9
				c7.6-6.1,15.8-11.6,23.5-17.6c3.6-2.8,9.9-4.1,7.6-11.4c-0.2-0.7,4-3,6.3-4.3c3.5-2,7.3-3.4,10.5-5.7c11-7.6,21.9-15.5,32.8-23.3
				c0.8-0.5,2-0.8,2.4-1.5c5.9-12.2,17.4-16.6,29.8-19.7c-0.3-0.7-0.6-1.5-0.8-2.2c-3.8,0-7.6,0-14.2-0.1
				c6.2-4.8,10.3-8.5,14.9-11.5c9.1-6,19.4-9.3,22.8-22.5c3.3-12.5,21.9-17.6,31.7-9.2C684.1,446.4,698,456.8,697.5,473.9z"/>
			<path class="st2" d="M417.6,582.8c-1.7-9.5-7.1-13.4-16.1-13.7c6.7-1.2,13.5-2.5,19.1-3.5C419.8,570,418.7,576.4,417.6,582.8z"/>
			<path class="st2" d="M594,537c9.3,0.3,17.9,11.3,16.8,20.8C599.7,556.8,593.7,549.6,594,537z"/>
			<path class="st2" d="M637.5,510.2c-2.3-8.4-4.6-16.8-6.9-25.2c0.9-0.3,1.9-0.6,2.8-0.9c1,3.2,2,6.3,3.1,9.6
				c1.4-0.6,2.8-1.2,5.3-2.3c-0.9,7-1.6,12.8-2.4,18.7C638.8,510.1,638.2,510.2,637.5,510.2z"/>
		</g>
	</g>
</g>
</svg>
